<mxfile host="app.diagrams.net" modified="2021-03-16T17:11:12.379Z" agent="5.0 (Macintosh)" etag="ljyvIbXSm_Rmm8iS4fo0" version="14.4.8" type="github">
  <diagram id="UZ1FOeh6ia5tTkRUNHFn" name="Page-1">
    <mxGraphModel dx="1426" dy="803" grid="1" gridSize="10" guides="1" tooltips="1" connect="1" arrows="1" fold="1" page="1" pageScale="1" pageWidth="850" pageHeight="1100" math="0" shadow="0">
      <root>
        <mxCell id="0" />
        <mxCell id="1" parent="0" />
        <mxCell id="Mgpp1kuGzCvRrwbhXcue-4" value="" style="rounded=0;whiteSpace=wrap;html=1;" vertex="1" parent="1">
          <mxGeometry x="320" y="10" width="210" height="340" as="geometry" />
        </mxCell>
        <mxCell id="Mgpp1kuGzCvRrwbhXcue-1" value="" style="rounded=0;whiteSpace=wrap;html=1;" vertex="1" parent="1">
          <mxGeometry x="365" y="40" width="120" height="90" as="geometry" />
        </mxCell>
        <mxCell id="Mgpp1kuGzCvRrwbhXcue-2" value="" style="rounded=0;whiteSpace=wrap;html=1;" vertex="1" parent="1">
          <mxGeometry x="365" y="220" width="120" height="90" as="geometry" />
        </mxCell>
        <mxCell id="Mgpp1kuGzCvRrwbhXcue-5" value="Initial state" style="text;html=1;align=center;verticalAlign=middle;resizable=0;points=[];autosize=1;" vertex="1" parent="1">
          <mxGeometry x="390" y="330" width="70" height="20" as="geometry" />
        </mxCell>
        <mxCell id="Mgpp1kuGzCvRrwbhXcue-6" value="Employee list" style="text;html=1;align=center;verticalAlign=middle;resizable=0;points=[];autosize=1;" vertex="1" parent="1">
          <mxGeometry x="380" y="230" width="90" height="20" as="geometry" />
        </mxCell>
        <mxCell id="Mgpp1kuGzCvRrwbhXcue-7" value="(/list)" style="text;html=1;align=center;verticalAlign=middle;resizable=0;points=[];autosize=1;" vertex="1" parent="1">
          <mxGeometry x="405" y="255" width="40" height="20" as="geometry" />
        </mxCell>
        <mxCell id="Mgpp1kuGzCvRrwbhXcue-8" value="3 employees" style="text;html=1;align=center;verticalAlign=middle;resizable=0;points=[];autosize=1;" vertex="1" parent="1">
          <mxGeometry x="385" y="280" width="80" height="20" as="geometry" />
        </mxCell>
        <mxCell id="Mgpp1kuGzCvRrwbhXcue-9" value="" style="rounded=0;whiteSpace=wrap;html=1;" vertex="1" parent="1">
          <mxGeometry x="320" y="400" width="210" height="340" as="geometry" />
        </mxCell>
        <mxCell id="Mgpp1kuGzCvRrwbhXcue-10" value="POST" style="text;html=1;align=center;verticalAlign=middle;resizable=0;points=[];autosize=1;" vertex="1" parent="1">
          <mxGeometry x="335" y="380" width="50" height="20" as="geometry" />
        </mxCell>
        <mxCell id="Mgpp1kuGzCvRrwbhXcue-11" value="&lt;div&gt;Home page&lt;/div&gt;&lt;div&gt;(/)&lt;br&gt;&lt;/div&gt;" style="text;html=1;align=center;verticalAlign=middle;resizable=0;points=[];autosize=1;" vertex="1" parent="1">
          <mxGeometry x="385" y="60" width="80" height="30" as="geometry" />
        </mxCell>
        <mxCell id="Mgpp1kuGzCvRrwbhXcue-12" value="" style="rounded=0;whiteSpace=wrap;html=1;" vertex="1" parent="1">
          <mxGeometry x="365" y="590" width="120" height="90" as="geometry" />
        </mxCell>
        <mxCell id="Mgpp1kuGzCvRrwbhXcue-13" value="" style="rounded=0;whiteSpace=wrap;html=1;" vertex="1" parent="1">
          <mxGeometry x="365" y="430" width="120" height="90" as="geometry" />
        </mxCell>
        <mxCell id="Mgpp1kuGzCvRrwbhXcue-14" value="New state" style="text;html=1;align=center;verticalAlign=middle;resizable=0;points=[];autosize=1;" vertex="1" parent="1">
          <mxGeometry x="460" y="720" width="70" height="20" as="geometry" />
        </mxCell>
        <mxCell id="Mgpp1kuGzCvRrwbhXcue-15" value="&lt;div&gt;Home page&lt;/div&gt;&lt;div&gt;(/)&lt;br&gt;&lt;/div&gt;" style="text;html=1;align=center;verticalAlign=middle;resizable=0;points=[];autosize=1;" vertex="1" parent="1">
          <mxGeometry x="385" y="450" width="80" height="30" as="geometry" />
        </mxCell>
        <mxCell id="Mgpp1kuGzCvRrwbhXcue-16" value="Employee list" style="text;html=1;align=center;verticalAlign=middle;resizable=0;points=[];autosize=1;" vertex="1" parent="1">
          <mxGeometry x="380" y="600" width="90" height="20" as="geometry" />
        </mxCell>
        <mxCell id="Mgpp1kuGzCvRrwbhXcue-17" value="(/list)" style="text;html=1;align=center;verticalAlign=middle;resizable=0;points=[];autosize=1;" vertex="1" parent="1">
          <mxGeometry x="405" y="620" width="40" height="20" as="geometry" />
        </mxCell>
        <mxCell id="Mgpp1kuGzCvRrwbhXcue-18" value="&lt;b&gt;4&lt;/b&gt; employees" style="text;html=1;align=center;verticalAlign=middle;resizable=0;points=[];autosize=1;" vertex="1" parent="1">
          <mxGeometry x="385" y="650" width="80" height="20" as="geometry" />
        </mxCell>
        <mxCell id="Mgpp1kuGzCvRrwbhXcue-19" value="GET" style="text;html=1;align=center;verticalAlign=middle;resizable=0;points=[];autosize=1;" vertex="1" parent="1">
          <mxGeometry x="480" y="70" width="40" height="20" as="geometry" />
        </mxCell>
        <mxCell id="Mgpp1kuGzCvRrwbhXcue-23" value="" style="endArrow=classic;html=1;entryX=0.5;entryY=0;entryDx=0;entryDy=0;" edge="1" parent="1" target="Mgpp1kuGzCvRrwbhXcue-1">
          <mxGeometry width="50" height="50" relative="1" as="geometry">
            <mxPoint x="485" y="90" as="sourcePoint" />
            <mxPoint x="465" y="70" as="targetPoint" />
            <Array as="points">
              <mxPoint x="515" y="90" />
              <mxPoint x="515" y="20" />
              <mxPoint x="490" y="20" />
              <mxPoint x="425" y="20" />
            </Array>
          </mxGeometry>
        </mxCell>
        <mxCell id="Mgpp1kuGzCvRrwbhXcue-24" value="" style="endArrow=classic;html=1;entryX=0.5;entryY=0;entryDx=0;entryDy=0;" edge="1" parent="1">
          <mxGeometry width="50" height="50" relative="1" as="geometry">
            <mxPoint x="485" y="270" as="sourcePoint" />
            <mxPoint x="425" y="220" as="targetPoint" />
            <Array as="points">
              <mxPoint x="515" y="270" />
              <mxPoint x="515" y="200" />
              <mxPoint x="490" y="200" />
              <mxPoint x="425" y="200" />
            </Array>
          </mxGeometry>
        </mxCell>
        <mxCell id="Mgpp1kuGzCvRrwbhXcue-25" value="" style="endArrow=classic;html=1;entryX=0.5;entryY=0;entryDx=0;entryDy=0;" edge="1" parent="1">
          <mxGeometry width="50" height="50" relative="1" as="geometry">
            <mxPoint x="485" y="640" as="sourcePoint" />
            <mxPoint x="425" y="590" as="targetPoint" />
            <Array as="points">
              <mxPoint x="515" y="640" />
              <mxPoint x="515" y="570" />
              <mxPoint x="490" y="570" />
              <mxPoint x="425" y="570" />
            </Array>
          </mxGeometry>
        </mxCell>
        <mxCell id="Mgpp1kuGzCvRrwbhXcue-26" value="" style="endArrow=classic;html=1;entryX=0.5;entryY=0;entryDx=0;entryDy=0;" edge="1" parent="1">
          <mxGeometry width="50" height="50" relative="1" as="geometry">
            <mxPoint x="485" y="480" as="sourcePoint" />
            <mxPoint x="425" y="430" as="targetPoint" />
            <Array as="points">
              <mxPoint x="515" y="480" />
              <mxPoint x="515" y="410" />
              <mxPoint x="490" y="410" />
              <mxPoint x="425" y="410" />
            </Array>
          </mxGeometry>
        </mxCell>
        <mxCell id="Mgpp1kuGzCvRrwbhXcue-27" value="GET" style="text;html=1;align=center;verticalAlign=middle;resizable=0;points=[];autosize=1;" vertex="1" parent="1">
          <mxGeometry x="480" y="250" width="40" height="20" as="geometry" />
        </mxCell>
        <mxCell id="Mgpp1kuGzCvRrwbhXcue-28" value="GET" style="text;html=1;align=center;verticalAlign=middle;resizable=0;points=[];autosize=1;" vertex="1" parent="1">
          <mxGeometry x="480" y="460" width="40" height="20" as="geometry" />
        </mxCell>
        <mxCell id="Mgpp1kuGzCvRrwbhXcue-29" value="GET" style="text;html=1;align=center;verticalAlign=middle;resizable=0;points=[];autosize=1;" vertex="1" parent="1">
          <mxGeometry x="480" y="620" width="40" height="20" as="geometry" />
        </mxCell>
        <mxCell id="Mgpp1kuGzCvRrwbhXcue-31" value="" style="endArrow=classic;html=1;" edge="1" parent="1">
          <mxGeometry width="50" height="50" relative="1" as="geometry">
            <mxPoint x="350" y="260" as="sourcePoint" />
            <mxPoint x="365" y="640" as="targetPoint" />
            <Array as="points">
              <mxPoint x="370" y="260" />
              <mxPoint x="340" y="260" />
              <mxPoint x="340" y="460" />
              <mxPoint x="340" y="640" />
            </Array>
          </mxGeometry>
        </mxCell>
      </root>
    </mxGraphModel>
  </diagram>
</mxfile>
